Coordinates
version=1
nRows=24
nColumns=24
inDegrees=yes

Units are S.I. units (second, meters, Newtons, ...)
Angles are in degrees.

endheader
time	pelvis_tilt	pelvis_list	pelvis_rotation	pelvis_tx	pelvis_ty	pelvis_tz	hip_flexion_r	hip_adduction_r	hip_rotation_r	knee_angle_r	ankle_angle_r	subtalar_angle_r	mtp_angle_r	hip_flexion_l	hip_adduction_l	hip_rotation_l	knee_angle_l	ankle_angle_l	subtalar_angle_l	mtp_angle_l	lumbar_extension	lumbar_bending	lumbar_rotation
      0.65000000	      4.64882450	      5.59392936	     -1.63707784	     -0.75820385	      1.05631893	      0.32491496	     18.66463020	     -1.69881461	    -12.73317840	      1.27156361	      9.55801376	      0.56799053	     -0.04938845	    -24.13938170	      9.48823741	     -5.59019737	     -2.79715715	      5.83613053	      8.22266396	      0.29995326	      0.70373398	     -2.71334258	     -2.02169879
      0.65416667	      4.63327962	      5.55692043	     -1.56810082	     -0.75232187	      1.05611971	      0.32502362	     18.60078539	     -1.65275023	    -12.65182487	      0.88757052	      9.60161693	      0.57393220	     -0.05379253	    -24.26803337	      9.39879807	     -5.54953646	     -3.15332395	      5.75335374	      8.18643178	      0.30243188	      0.79443013	     -2.63734654	     -2.04341542
      0.65833333	      4.62840218	      5.49897432	     -1.48765447	     -0.74634461	      1.05595740	      0.32512028	     18.50013191	     -1.58946512	    -12.54492010	      0.51368896	      9.69308786	      0.53792253	     -0.05948741	    -24.40756652	      9.28210391	     -5.53555068	     -3.50922750	      5.58823105	      8.13777378	      0.30666995	      0.90067967	     -2.51843026	     -2.08430269
      0.66250000	      4.62972811	      5.33763341	     -1.44474633	     -0.74002843	      1.05581158	      0.32528533	     18.33260499	     -1.39845652	    -12.34555655	      0.19668848	      9.89712766	      0.33589280	     -0.07830121	    -24.59303166	      9.07005254	     -5.57104198	     -3.79046093	      5.13772377	      8.03220557	      0.32613919	      0.96881230	     -2.29771592	     -2.21908550
      0.66666667	      4.64052510	      5.30654392	     -1.36865979	     -0.73410302	      1.05569614	      0.32541544	     18.20713825	     -1.36406851	    -12.19441057	     -0.17691473	      9.85498955	      0.29022952	     -0.08345764	    -24.71818919	      8.97939297	     -5.55173668	     -4.19903551	      5.02890027	      8.00171619	      0.33427583	      1.02922407	     -2.23711001	     -2.24751664
      0.67083333	      4.85738277	      5.15301626	     -1.37956807	     -0.72810165	      1.05583936	      0.32579318	     17.76511279	     -1.15433747	    -11.52960412	     -0.36367147	      9.58630992	     -0.69641009	     -0.16086927	    -25.08327687	      8.77957855	     -5.68492271	     -4.53072890	      4.47837845	      7.83116595	      0.49014118	      0.73950315	     -2.09700311	     -2.57527220
      0.67500000	      4.84723731	      5.09684916	     -1.28057330	     -0.72203032	      1.05575485	      0.32593740	     17.62059054	     -1.09673715	    -11.39463276	     -0.69069821	      9.53181679	     -0.71233258	     -0.16490223	    -25.17479586	      8.64598390	     -5.65739483	     -4.97009019	      4.37920245	      7.83016384	      0.50194872	      0.85703260	     -2.01952575	     -2.58226752
      0.67916667	      4.85389017	      4.88354320	     -1.18378428	     -0.71545946	      1.05574324	      0.32615218	     17.35275398	     -0.85585649	    -11.16730652	     -0.85473243	      9.24170884	     -1.01135083	     -0.18774923	    -25.32903633	      8.34045081	     -5.77242379	     -5.32794229	      3.84525966	      7.87255248	      0.56350475	      1.00493534	     -1.73833955	     -2.67842218
      0.68333333	      4.86218860	      4.85147849	     -1.09579074	     -0.70950147	      1.05572321	      0.32633687	     17.18571071	     -0.82303157	    -11.02225035	     -1.16286735	      9.13565329	     -1.05868865	     -0.19165411	    -25.39293154	      8.23183280	     -5.78754067	     -5.83222906	      3.73061573	      7.85547862	      0.57909648	      1.06173287	     -1.66427443	     -2.69693723
      0.68750000	      4.98082292	      4.62751057	     -1.08020608	     -0.70306361	      1.05585875	      0.32670122	     16.79631557	     -0.54803329	    -10.69505652	     -1.26544484	      8.42156542	     -1.69124171	     -0.22295511	    -25.62552087	      7.94010635	     -6.04911283	     -6.23109754	      2.99717818	      7.91907737	      0.70076777	      1.07151132	     -1.35368482	     -2.87492069
      0.69166667	      5.07810534	      4.45980128	     -1.00047423	     -0.69679278	      1.05602250	      0.32708537	     16.41238726	     -0.34004096	    -10.26624225	     -1.33221374	      7.84671810	     -2.39959791	     -0.25233395	    -25.78747676	      7.66445303	     -6.25304389	     -6.73011615	      2.58877294	      8.01827260	      0.90018784	      1.02247063	     -1.19390622	     -3.01703156
      0.69583333	      5.05301699	      4.39370679	     -0.88548832	     -0.69068805	      1.05607647	      0.32733070	     16.22289913	     -0.26972783	    -10.11610111	     -1.52498440	      7.72908542	     -2.40805757	     -0.25419534	    -25.77513945	      7.49228948	     -6.26611470	     -7.31958638	      2.47404162	      7.99528643	      0.92578659	      1.06098541	     -1.13159182	     -3.02510702
      0.70000000	      5.21386878	      4.17417869	     -0.83487728	     -0.68436649	      1.05636780	      0.32785054	     15.73531464	      0.01039394	     -9.57459781	     -1.50519050	      6.78020882	     -3.51148182	     -0.28123377	    -25.97292356	      7.15456184	     -6.61900232	     -7.84691332	      1.81319740	      8.24030020	      1.39557671	      0.85015118	     -0.86288106	     -3.25238017
      0.70416667	      5.19275991	      3.96933759	     -0.69292597	     -0.67778910	      1.05650316	      0.32808664	     15.46571819	      0.22702067	     -9.53930213	     -1.58582794	      6.35831096	     -3.51006319	     -0.28556805	    -25.97674576	      6.81533785	     -6.76194034	     -8.42175144	      1.46154991	      8.22294989	      1.48768238	      1.05819321	     -0.73086308	     -3.25810813
      0.70833333	      5.17123337	      3.80115880	     -0.56318441	     -0.67136438	      1.05665761	      0.32832027	     15.22443254	      0.40087514	     -9.52730718	     -1.68874824	      5.74478255	     -3.58592978	     -0.29034403	    -25.93419484	      6.51440510	     -6.95457905	     -9.05234039	      0.90973854	      8.25363186	      1.59487406	      1.12974027	     -0.46660640	     -3.31249104
      0.71250000	      5.24781944	      3.62579154	     -0.51586230	     -0.66502962	      1.05691069	      0.32860984	     14.90551852	      0.59300707	     -9.52667753	     -1.81935839	      4.99685282	     -3.82516510	     -0.29231389	    -25.98993988	      6.24422326	     -7.15966588	     -9.66811003	      0.25142266	      8.32186166	      1.77290814	      1.25995326	     -0.19911287	     -3.39463575
      0.71666667	      5.29422013	      3.43360072	     -0.40977052	     -0.65863529	      1.05718172	      0.32890647	     14.59047626	      0.79722788	     -9.48483794	     -1.90906681	      4.31817390	     -4.07041437	     -0.28791949	    -25.98272224	      5.91429214	     -7.38978718	    -10.35109599	     -0.36689959	      8.36811026	      1.98340631	      1.29814778	      0.03626448	     -3.47857609
      0.72083333	      5.33633503	      3.23955154	     -0.30183835	     -0.65224021	      1.05747563	      0.32919150	     14.28711137	      0.99977889	     -9.46640652	     -2.01905224	      3.67664931	     -4.28788204	     -0.27943380	    -25.94839036	      5.57832682	     -7.60044672	    -11.07197037	     -0.96415157	      8.40623084	      2.20441909	      1.34251575	      0.27411592	     -3.55596868
      0.72500000	      5.37887064	      3.04361666	     -0.20131612	     -0.64585536	      1.05778540	      0.32949818	     13.99365091	      1.20302778	     -9.47670168	     -2.14824826	      3.03974842	     -4.47621469	     -0.26669066	    -25.89039306	      5.23607112	     -7.83406923	    -11.82971369	     -1.59857144	      8.45073689	      2.44484332	      1.38434188	      0.51026413	     -3.62938749
      0.72916667	      5.41439578	      2.83774526	     -0.09628458	     -0.63946121	      1.05811176	      0.32978955	     13.71526511	      1.41146308	     -9.52564156	     -2.29711883	      2.42986687	     -4.63281057	     -0.25090428	    -25.79882200	      4.87549240	     -8.07070772	    -12.63129110	     -2.26733474	      8.48660405	      2.69415537	      1.43738113	      0.76286374	     -3.69645621
      0.73333333	      5.43914261	      2.62906492	     -0.00046477	     -0.63308364	      1.05842945	      0.33009494	     13.46133131	      1.62041831	     -9.60083054	     -2.47343698	      1.84664979	     -4.75054558	     -0.23316536	    -25.67255427	      4.51112126	     -8.30288048	    -13.47278298	     -2.95028345	      8.50660025	      2.94489935	      1.49447369	      1.01401663	     -3.75461750
      0.73750000	      5.51636755	      2.42057102	      0.11166916	     -0.62678236	      1.05885121	      0.33037475	     13.13454104	      1.82334178	     -9.53791189	     -2.60908633	      1.18677792	     -4.93386085	     -0.18352478	    -25.57624545	      4.13424346	     -8.45199998	    -14.33731027	     -3.75686106	      8.51768744	      3.49812235	      1.50881580	      1.29249283	     -3.83761611
      0.74166667	      5.54235655	      2.20128454	      0.17623096	     -0.62046291	      1.05918191	      0.33074910	     12.92806179	      2.04234091	     -9.80164148	     -2.88777220	      0.74029041	     -5.00193147	     -0.16018681	    -25.38951735	      3.75407123	     -8.78620619	    -15.28591245	     -4.41635882	      8.50133586	      3.77396029	      1.56608846	      1.53454199	     -3.87255947
      0.74583333	      5.56178881	      1.97909577	      0.26451356	     -0.61415585	      1.05953772	      0.33106306	     12.71103956	      2.25349313	     -9.96112117	     -3.12887991	      0.24241417	     -4.98945093	     -0.13733669	    -25.17542741	      3.35956606	     -9.00657403	    -16.25733838	     -5.18235135	      8.50075467	      4.03538543	      1.62313897	      1.81614369	     -3.90755402
